<svg xmlns="http://www.w3.org/2000/svg" xmlns:xlink="http://www.w3.org/1999/xlink" width="41.198" height="41.017" viewBox="0 0 41.198 41.017">
  <defs>
    <linearGradient id="linear-gradient" x1="0.5" x2="0.5" y2="1" gradientUnits="objectBoundingBox">
      <stop offset="0" stop-color="#414c58"/>
      <stop offset="1"/>
    </linearGradient>
  </defs>
  <g id="Group_90788" data-name="Group 90788" transform="translate(3330.782 1491.597)">
    <g id="Group_13734" data-name="Group 13734" transform="translate(-3330.083 -1490.897)">
      <g id="Prize_2_" transform="translate(0 0)">
        <g id="Group_13733" data-name="Group 13733" transform="translate(0)">
          <path id="Path_22087" data-name="Path 22087" d="M47.823,39.617l-3.1-4.279-4.506,2.775s.364-4.075-1.237-5.161-5.166.817-5.166.817l.769-5.209-5.156-1.237s3.147-2.607,2.771-4.508-4.276-3.1-4.276-3.1l4.276-3.1L29.43,12.114s4.076.375,5.161-1.238-.823-5.216-.823-5.216l5.214.824,1.237-5.158s2.608,3.1,4.509,2.77,3.1-4.1,3.1-4.1l3.1,4.1,4.509-2.77S55.052,5.4,56.665,6.484s5.214-.824,5.214-.824l-.823,5.216,5.161,1.238s-3.147,2.607-2.771,4.508,4.276,3.1,4.276,3.1l-4.276,3.1,2.771,4.508s-4.059-.374-5.156,1.237.769,5.209.769,5.209l-5.166-.817-1.237,5.161s-2.605-3.151-4.506-2.775S47.823,39.617,47.823,39.617Z" transform="translate(-27.924 0)" fill="#fff" stroke="#535664" stroke-linecap="round" stroke-linejoin="round" stroke-width="1.4"/>
        </g>
      </g>
    </g>
    <g id="Group_90789" data-name="Group 90789" transform="translate(-3570.187 -3785.343)">
      <g id="Path_108964" data-name="Path 108964" transform="translate(248.115 2302.266)" fill="none">
        <path d="M11.956.234A11.853,11.853,0,1,1,.1,12.087,11.853,11.853,0,0,1,11.956.234Z" stroke="none"/>
        <path d="M 11.95556640625 0.8343715667724609 C 8.949776649475098 0.8343715667724609 6.123886108398438 2.004890441894531 3.998476028442383 4.130311965942383 C 1.873056411743164 6.255722045898438 0.7025356292724609 9.081611633300781 0.7025356292724609 12.08740139007568 C 0.7025356292724609 15.09319114685059 1.873056411743164 17.91908073425293 3.998476028442383 20.04449081420898 C 6.123886108398438 22.1699104309082 8.949776649475098 23.34043121337891 11.95556640625 23.34043121337891 C 14.9613561630249 23.34043121337891 17.78724670410156 22.1699104309082 19.91265678405762 20.04449081420898 C 22.03807640075684 17.91908073425293 23.20859718322754 15.09319114685059 23.20859718322754 12.08740139007568 C 23.20859718322754 9.081611633300781 22.03807640075684 6.255722045898438 19.91265678405762 4.130311965942383 C 17.78724670410156 2.004890441894531 14.9613561630249 0.8343715667724609 11.95556640625 0.8343715667724609 M 11.95556640625 0.2343711853027344 C 18.50181579589844 0.2343711853027344 23.80859565734863 5.54115104675293 23.80859565734863 12.08740139007568 C 23.80859565734863 18.63365173339844 18.50181579589844 23.94043159484863 11.95556640625 23.94043159484863 C 5.409317016601562 23.94043159484863 0.1025371551513672 18.63365173339844 0.1025371551513672 12.08740139007568 C 0.1025371551513672 5.54115104675293 5.409317016601562 0.2343711853027344 11.95556640625 0.2343711853027344 Z" stroke="none" fill="#20262e"/>
      </g>
      <g id="Path_108965" data-name="Path 108965" transform="translate(249.53 2303.68)" fill="url(#linear-gradient)">
        <path d="M 10.54093265533447 20.8111572265625 C 4.950602531433105 20.8111572265625 0.4025426506996155 16.26309776306152 0.4025426506996155 10.67276763916016 C 0.4025426506996155 5.082437515258789 4.950602531433105 0.5343776345252991 10.54093265533447 0.5343776345252991 C 16.13126182556152 0.5343776345252991 20.67932319641113 5.082437515258789 20.67932319641113 10.67276763916016 C 20.67932319641113 16.26309776306152 16.13126182556152 20.8111572265625 10.54093265533447 20.8111572265625 Z" stroke="none"/>
        <path d="M 10.54093265533447 0.8343772888183594 C 5.116023063659668 0.8343772888183594 0.7025432586669922 5.247858047485352 0.7025432586669922 10.67276763916016 C 0.7025432586669922 16.09767723083496 5.116023063659668 20.51115798950195 10.54093265533447 20.51115798950195 C 15.96584320068359 20.51115798950195 20.37932205200195 16.09767723083496 20.37932205200195 10.67276763916016 C 20.37932205200195 5.247858047485352 15.96584320068359 0.8343772888183594 10.54093265533447 0.8343772888183594 M 10.54093265533447 0.2343769073486328 C 16.3059024810791 0.2343769073486328 20.97932243347168 4.907796859741211 20.97932243347168 10.67276763916016 C 20.97932243347168 16.4377269744873 16.3059024810791 21.11115837097168 10.54093265533447 21.11115837097168 C 4.775962829589844 21.11115837097168 0.1025428771972656 16.4377269744873 0.1025428771972656 10.67276763916016 C 0.1025428771972656 4.907796859741211 4.775962829589844 0.2343769073486328 10.54093265533447 0.2343769073486328 Z" stroke="none" fill="#fff"/>
      </g>
    </g>
    <path id="Path_108966" data-name="Path 108966" d="M-3306.929-1459.211c.011.177,3,3,3,3l6.147-6.147" transform="translate(-7.222 -11.666)" fill="none" stroke="#fff" stroke-linecap="round" stroke-linejoin="round" stroke-width="2"/>
  </g>
</svg>
