<svg xmlns="http://www.w3.org/2000/svg" width="24" height="24" viewBox="0 0 24 24">
  <g id="Group_100510" data-name="Group 100510" transform="translate(-14 -1728)">
    <rect id="Boundary" width="24" height="24" transform="translate(14 1728)" fill="none"/>
    <g id="noun-offers-1253179" transform="translate(18 1730.739)">
      <path id="Path_101706" data-name="Path 101706" d="M136.475,29.057l-6.039-3.486a2.275,2.275,0,0,0-2.238,0l-6.039,3.487a2.244,2.244,0,0,0-1.119,1.938v6.973a2.244,2.244,0,0,0,1.119,1.938l6.039,3.486a2.238,2.238,0,0,0,2.238,0l6.039-3.487a2.245,2.245,0,0,0,1.119-1.938V30.995a2.243,2.243,0,0,0-1.119-1.938Zm.107,8.911a1.229,1.229,0,0,1-.613,1.062l-6.039,3.486a1.246,1.246,0,0,1-1.226,0l-6.038-3.486a1.23,1.23,0,0,1-.613-1.062V30.995a1.229,1.229,0,0,1,.613-1.062l6.039-3.486a1.225,1.225,0,0,1,1.226,0l6.039,3.487a1.229,1.229,0,0,1,.613,1.062v6.972Z" transform="translate(-121.041 -25.276)" fill="#535664"/>
      <path id="Path_108792" data-name="Path 108792" d="M132.384,31.487,125.659,36.7a.488.488,0,0,0-.087.683.483.483,0,0,0,.68.088l6.725-5.217a.486.486,0,0,0-.592-.77Zm-4.493,1.888a1.682,1.682,0,0,0,1.2-.5,1.71,1.71,0,0,0,0-2.408,1.691,1.691,0,0,0-2.4,0,1.71,1.71,0,0,0,0,2.408A1.682,1.682,0,0,0,127.891,33.376Zm-.514-2.219a.724.724,0,0,1,1.028,0,.733.733,0,0,1,0,1.032.742.742,0,0,1-1.028,0,.733.733,0,0,1,0-1.032Zm3.367,4.43a1.683,1.683,0,0,0-1.2.5,1.71,1.71,0,0,0,0,2.408,1.691,1.691,0,0,0,2.4,0,1.71,1.71,0,0,0,0-2.408A1.682,1.682,0,0,0,130.744,35.587Zm.514,2.219a.742.742,0,0,1-1.028,0,.733.733,0,0,1,0-1.032.724.724,0,0,1,1.028,0,.732.732,0,0,1,0,1.032Z" transform="translate(-121.041 -25.276)" fill="#535664"/>
    </g>
  </g>
</svg>
