<svg xmlns="http://www.w3.org/2000/svg" width="10.553" height="10.032" viewBox="0 0 10.553 10.032">
  <path id="Path_84685" data-name="Path 84685" d="M5.226.671a.469.469,0,0,1,.849,0L7.3,3.26a.469.469,0,0,0,.366.265l2.851.356a.469.469,0,0,1,.262.809L8.685,6.64a.469.469,0,0,0-.141.432l.54,2.8a.469.469,0,0,1-.686.5L5.876,8.995a.469.469,0,0,0-.451,0L2.9,10.375a.469.469,0,0,1-.686-.5l.54-2.8a.469.469,0,0,0-.141-.432L.524,4.69a.469.469,0,0,1,.262-.809l2.851-.356A.469.469,0,0,0,4,3.26Z" transform="translate(-0.374 -0.402)" fill="#080A08"/>
</svg>
