<svg xmlns="http://www.w3.org/2000/svg" width="12.501" height="12.5" viewBox="0 0 12.501 12.5">
  <path id="Icon_ionic-ios-call" data-name="Icon ionic-ios-call" d="M16.63,14.291a10.5,10.5,0,0,0-2.193-1.468c-.657-.316-.9-.309-1.364.026-.387.28-.638.54-1.084.443a6.465,6.465,0,0,1-2.177-1.611A6.418,6.418,0,0,1,8.2,9.5c-.094-.449.166-.7.443-1.084.335-.465.345-.706.026-1.364A10.293,10.293,0,0,0,7.2,4.863c-.478-.478-.586-.374-.849-.28A4.833,4.833,0,0,0,5.575,5a2.346,2.346,0,0,0-.934.986c-.186.4-.4,1.146.693,3.092a17.251,17.251,0,0,0,3.033,4.045h0l0,0,0,0h0a17.319,17.319,0,0,0,4.045,3.033c1.946,1.093,2.691.879,3.092.693a2.306,2.306,0,0,0,.986-.934,4.833,4.833,0,0,0,.413-.778C17,14.876,17.112,14.769,16.63,14.291Z" transform="translate(-4.49 -4.503)" fill="#fff"/>
</svg>
