<svg id="Group_79589" data-name="Group 79589" xmlns="http://www.w3.org/2000/svg" width="15.915" height="15.907" viewBox="0 0 15.915 15.907">
  <g id="noun_write_3954045">
    <g id="_48-Write" data-name="48-Write">
      <path id="Path_84739" data-name="Path 84739" d="M13.362,15.2,14.5,14.066V16.2a1.7,1.7,0,0,1-1.7,1.7H3.7A1.7,1.7,0,0,1,2,16.2V3.7A1.7,1.7,0,0,1,3.7,2h7.953a.568.568,0,0,1,.4.165l2.272,2.272a.568.568,0,0,1,.165.4v1L13.362,6.977v-1.9L11.425,3.136H3.7a.568.568,0,0,0-.568.568V16.2a.568.568,0,0,0,.568.568h9.09a.568.568,0,0,0,.568-.568ZM17.39,7.062a1.784,1.784,0,0,0-2.511,0L9.55,12.39a.568.568,0,0,0-.148.267L8.834,14.93a.568.568,0,0,0,.687.7l2.272-.568a.568.568,0,0,0,.267-.148L17.39,9.59a1.784,1.784,0,0,0,0-2.528Z" transform="translate(-2 -2)" fill="#080a08"/>
    </g>
  </g>
  <g id="noun_write_3954045-2" data-name="noun_write_3954045" transform="translate(2.272 3.409)">
    <g id="_48-Write-2" data-name="48-Write">
      <path id="Path_84740" data-name="Path 84740" d="M4.84,12.226a.568.568,0,1,0,0,1.136H7.113a.568.568,0,1,0,0-1.136ZM9.953,5.409H4.84a.568.568,0,0,0,0,1.136H9.953a.568.568,0,0,0,0-1.136Zm.568,3.977a.568.568,0,0,0-.568-.568H4.84a.568.568,0,1,0,0,1.136H9.953A.568.568,0,0,0,10.521,9.385Z" transform="translate(-4.272 -5.409)" fill="#080a08"/>
    </g>
  </g>
</svg>
