<svg xmlns="http://www.w3.org/2000/svg" width="38.359" height="44.757" viewBox="0 0 38.359 44.757">
  <g id="Group_100460" data-name="Group 100460" transform="translate(-26 5)">
    <path id="Polygon_1" data-name="Polygon 1" d="M3,0,6,5H0Z" transform="translate(58.358 -5)" fill="#13742f"/>
    <path id="Group_427321710" data-name="Group 427321710" d="M35.389-5H.172V17.683s0,0,0,0V38.563c0,.483.452.918,1.146,1.1a2.653,2.653,0,0,0,2.023-.259l3.938-2.532,3.938,2.532a2.638,2.638,0,0,0,2.625,0l3.938-2.532,3.938,2.532a2.639,2.639,0,0,0,2.625,0l3.938-2.533,3.938,2.533a2.654,2.654,0,0,0,2.023.259c.694-.185,1.146-.62,1.146-1.1V-5Z" transform="translate(25.827)" fill="#23a247" fill-rule="evenodd"/>
  </g>
</svg>
