<svg id="Group_83975" data-name="Group 83975" xmlns="http://www.w3.org/2000/svg" width="24.5" height="25.203" viewBox="0 0 24.5 25.203">
  <g id="like" transform="translate(0 0)">
    <path id="Path_84741" data-name="Path 84741" d="M7.41,8.069a3.131,3.131,0,0,0-.733,2.092,3.214,3.214,0,0,0,.685,1.813,2.817,2.817,0,0,0,.669,3.241c.838.764,2.261,1.107,4.232,1.012a16.541,16.541,0,0,0,2.593-.332h.005c.264-.047.543-.105.827-.169a9.194,9.194,0,0,1-.659,3.062c-.738,2.245-.7,3.963.137,5.112a3.35,3.35,0,0,0,2.683,1.3,1.324,1.324,0,0,0,1.017-.464,3.545,3.545,0,0,0,.443-2.514c.7-1.866,2.646-6.44,4.3-7.711a.565.565,0,0,0,.084-.074,5.662,5.662,0,0,0,1.033-1.549,2.175,2.175,0,0,0,1.044.264h3.215a2.194,2.194,0,0,0,2.193-2.192V2.4A2.194,2.194,0,0,0,28.982.206H25.767a2.188,2.188,0,0,0-1.265.4L23.264.459A53.067,53.067,0,0,0,16.238.074C15.611.026,15.021,0,14.473,0a11.826,11.826,0,0,0-2.451.221A4.583,4.583,0,0,0,8.749,2.256a3.226,3.226,0,0,0-.358,2.019,3.362,3.362,0,0,0-1.2,2.735A3.56,3.56,0,0,0,7.41,8.069Zm21.572-6.44a.77.77,0,0,1,.769.769v8.57a.77.77,0,0,1-.769.769H25.767A.77.77,0,0,1,25,10.968V2.4a.77.77,0,0,1,.769-.769h3.215ZM8.759,8.686a.708.708,0,0,0,.095-.859,2.193,2.193,0,0,1-.242-.88A2.109,2.109,0,0,1,9.6,5.123a.718.718,0,0,0,.242-.812,1.861,1.861,0,0,1,.142-1.36,3.3,3.3,0,0,1,2.33-1.339A13.885,13.885,0,0,1,16.159,1.5h.074a52.025,52.025,0,0,1,6.852.374h.005l.532.063a2.233,2.233,0,0,0-.047.464v8.57a2.23,2.23,0,0,0,.1.654,4.4,4.4,0,0,1-.98,1.808c-2.366,1.876-4.68,8.206-4.78,8.48a.667.667,0,0,0-.032.353,3.294,3.294,0,0,1-.069,1.528,1.891,1.891,0,0,1-1.486-.712c-.538-.743-.517-2.071.063-3.832.885-2.683.959-4.1.258-4.717a1.149,1.149,0,0,0-1.149-.206c-.322.074-.627.137-.917.184l-.069.016c-1.618.353-4.517.569-5.523-.348a1.516,1.516,0,0,1-.179-1.924.7.7,0,0,0-.126-.917A2,2,0,0,1,8.1,10.109,1.957,1.957,0,0,1,8.759,8.686Z" transform="translate(-6.675 0)" fill="#4a5e78"/>
  </g>
</svg>
