<svg xmlns="http://www.w3.org/2000/svg" xmlns:xlink="http://www.w3.org/1999/xlink" width="54.276" height="30.294" viewBox="0 0 54.276 30.294"><defs><style>.a,.c{stroke:#fff;}.b{fill:#fff;}.c{stroke-linecap:square;}.d{clip-path:url(#a);}.e{fill:#ffcd00;}</style><clipPath id="a"><path class="a" d="M59.171,24.248a7.39,7.39,0,0,0-.844-1.857A8.028,8.028,0,0,0,57.061,20.7a7.565,7.565,0,0,0-1.6-1.266,7.637,7.637,0,0,0,2.111-2.786,7.259,7.259,0,0,0,.76-3.292,8.22,8.22,0,0,0-.507-2.87,6.784,6.784,0,0,0-1.6-2.533,6.173,6.173,0,0,0-1.351-1.182,10.815,10.815,0,0,0-1.688-.929,15.753,15.753,0,0,0-1.857-.591A7.529,7.529,0,0,0,49.463,5H36.8V34.294H50.814a8.924,8.924,0,0,0,3.377-.675,9.748,9.748,0,0,0,2.786-1.773,8.214,8.214,0,0,0,1.857-2.617,8.081,8.081,0,0,0,.675-3.208,5,5,0,0,0-.338-1.773M45.58,11.332h1.773a3.025,3.025,0,0,1,2.026.76,2.279,2.279,0,0,1,.844,1.857,2.279,2.279,0,0,1-.844,1.857,3.025,3.025,0,0,1-2.026.76H45.58ZM49.8,27.287a3.056,3.056,0,0,1-2.279.844H45.326V22.222h2.195a3.056,3.056,0,0,1,2.279.844,2.863,2.863,0,0,1,0,4.221" transform="translate(-36.8 -5)"/></clipPath></defs><g transform="translate(0 0.5)"><path class="b" d="M59.171,24.248a7.39,7.39,0,0,0-.844-1.857A8.028,8.028,0,0,0,57.061,20.7a7.565,7.565,0,0,0-1.6-1.266,7.637,7.637,0,0,0,2.111-2.786,7.259,7.259,0,0,0,.76-3.292,8.22,8.22,0,0,0-.507-2.87,6.784,6.784,0,0,0-1.6-2.533,6.173,6.173,0,0,0-1.351-1.182,10.815,10.815,0,0,0-1.688-.929,15.753,15.753,0,0,0-1.857-.591A7.529,7.529,0,0,0,49.463,5H36.8V34.294H50.814a8.924,8.924,0,0,0,3.377-.675,9.748,9.748,0,0,0,2.786-1.773,8.214,8.214,0,0,0,1.857-2.617,8.081,8.081,0,0,0,.675-3.208,5,5,0,0,0-.338-1.773M45.58,11.332h1.773a3.025,3.025,0,0,1,2.026.76,2.279,2.279,0,0,1,.844,1.857,2.279,2.279,0,0,1-.844,1.857,3.025,3.025,0,0,1-2.026.76H45.58ZM49.8,27.287a3.056,3.056,0,0,1-2.279.844H45.326V22.222h2.195a3.056,3.056,0,0,1,2.279.844,2.863,2.863,0,0,1,0,4.221" transform="translate(-5.733 -5)"/><g transform="translate(31.067 0)"><path class="c" d="M59.171,24.248a7.39,7.39,0,0,0-.844-1.857A8.028,8.028,0,0,0,57.061,20.7a7.565,7.565,0,0,0-1.6-1.266,7.637,7.637,0,0,0,2.111-2.786,7.259,7.259,0,0,0,.76-3.292,8.22,8.22,0,0,0-.507-2.87,6.784,6.784,0,0,0-1.6-2.533,6.173,6.173,0,0,0-1.351-1.182,10.815,10.815,0,0,0-1.688-.929,15.753,15.753,0,0,0-1.857-.591A7.529,7.529,0,0,0,49.463,5H36.8V34.294H50.814a8.924,8.924,0,0,0,3.377-.675,9.748,9.748,0,0,0,2.786-1.773,8.214,8.214,0,0,0,1.857-2.617,8.081,8.081,0,0,0,.675-3.208,5,5,0,0,0-.338-1.773M45.58,11.332h1.773a3.025,3.025,0,0,1,2.026.76,2.279,2.279,0,0,1,.844,1.857,2.279,2.279,0,0,1-.844,1.857,3.025,3.025,0,0,1-2.026.76H45.58ZM49.8,27.287a3.056,3.056,0,0,1-2.279.844H45.326V22.222h2.195a3.056,3.056,0,0,1,2.279.844,2.863,2.863,0,0,1,0,4.221" transform="translate(-36.8 -5)"/><g class="d"><path class="e" d="M36.8,18.066,57.905,0H70.231V33.515H52.08L36.8,19.67Z" transform="translate(-36.8 -4.221)"/></g></g><path d="M27.69,5.1V34.394H19.163V19.2l-5.319,7.176L8.526,19.2v15.2H0V5.1H8.526l5.319,7.091L19.163,5.1Z" transform="translate(0 -5.016)"/></g></svg>