<svg xmlns="http://www.w3.org/2000/svg" xmlns:xlink="http://www.w3.org/1999/xlink" width="37.192" height="37.192" viewBox="0 0 37.192 37.192">
  <defs>
    <linearGradient id="linear-gradient" x1="0.5" x2="0.5" y2="1" gradientUnits="objectBoundingBox">
      <stop offset="0" stop-color="#414c58"/>
      <stop offset="1"/>
    </linearGradient>
  </defs>
  <g id="Group_90785" data-name="Group 90785" transform="translate(16715.9 -5163.801)">
    <path id="noun-return-3901787" d="M108.908,35a3.922,3.922,0,0,0-3.9,3.9v26a3.922,3.922,0,0,0,3.9,3.9h13.459a11.682,11.682,0,0,0,16.427-16.432V38.9A3.913,3.913,0,0,0,134.9,35H108.908Zm0,2.6h6.5V49.3a1.3,1.3,0,0,0,2.082,1.036l4.414-3.31,2.818,2.109a11.659,11.659,0,0,0-4.734,17.058H108.909a1.269,1.269,0,0,1-1.3-1.295v-26a1.271,1.271,0,0,1,1.3-1.3Zm9.1,0h7.8V46.7l-3.117-2.351a1.3,1.3,0,0,0-1.564,0L118,46.695Zm10.4,0h6.5a1.263,1.263,0,0,1,1.295,1.3V49.98A11.626,11.626,0,0,0,129.7,48a11.928,11.928,0,0,0-1.295.076Zm1.295,13a8.906,8.906,0,0,1,9.1,9.1,9.094,9.094,0,1,1-9.1-9.1Z" transform="translate(-16820.504 5129.201)" fill="#535664" stroke="#fff" stroke-width="0.8"/>
    <g id="Path_108962" data-name="Path 108962" transform="translate(-16700.742 5178.593)" fill="url(#linear-gradient)">
      <path d="M 10.1025390625 19.93437576293945 C 4.753939151763916 19.93437576293945 0.402539074420929 15.58297538757324 0.402539074420929 10.234375 C 0.402539074420929 4.885775089263916 4.753939151763916 0.534375011920929 10.1025390625 0.534375011920929 C 15.45113945007324 0.534375011920929 19.80253982543945 4.885775089263916 19.80253982543945 10.234375 C 19.80253982543945 15.58297538757324 15.45113945007324 19.93437576293945 10.1025390625 19.93437576293945 Z" stroke="none"/>
      <path d="M 10.1025390625 0.8343753814697266 C 4.91935920715332 0.8343753814697266 0.7025394439697266 5.05119514465332 0.7025394439697266 10.234375 C 0.7025394439697266 15.41755485534668 4.91935920715332 19.63437461853027 10.1025390625 19.63437461853027 C 15.28571891784668 19.63437461853027 19.50253868103027 15.41755485534668 19.50253868103027 10.234375 C 19.50253868103027 5.05119514465332 15.28571891784668 0.8343753814697266 10.1025390625 0.8343753814697266 M 10.1025390625 0.234375 C 15.62538909912109 0.234375 20.1025390625 4.711524963378906 20.1025390625 10.234375 C 20.1025390625 15.75722503662109 15.62538909912109 20.234375 10.1025390625 20.234375 C 4.579689025878906 20.234375 0.1025390625 15.75722503662109 0.1025390625 10.234375 C 0.1025390625 4.711524963378906 4.579689025878906 0.234375 10.1025390625 0.234375 Z" stroke="none" fill="#fff"/>
    </g>
    <g id="Group_34" data-name="Group 34" transform="translate(-16694.729 5184.743)">
      <g id="Group_33" data-name="Group 33">
        <path id="Path_36" data-name="Path 36" d="M175.151,171.443,172.6,168.9l2.55-2.546a.9.9,0,1,0-1.273-1.274l-2.552,2.548-2.552-2.548a.9.9,0,1,0-1.273,1.274l2.55,2.546-2.55,2.546a.9.9,0,0,0,1.274,1.274l2.552-2.548,2.552,2.548a.9.9,0,1,0,1.273-1.274Z" transform="translate(-167.236 -164.813)" fill="#fff"/>
      </g>
    </g>
  </g>
</svg>
