<svg id="noun-discount-1481306" xmlns="http://www.w3.org/2000/svg" width="24.189" height="24.204" viewBox="0 0 24.189 24.204">
  <path id="Subtraction_50" data-name="Subtraction 50" d="M15.086,24.2h0l-.261-.057-2.73-.9-2.729.9a.863.863,0,0,1-.267.042.876.876,0,0,1-.663-.3l-1.916-2.15L3.7,21.154a.862.862,0,0,1-.432-.235.875.875,0,0,1-.235-.432L2.454,17.67.3,15.754a.873.873,0,0,1-.271-.426.843.843,0,0,1,.01-.5l.9-2.73-.9-2.73a.85.85,0,0,1-.01-.5A.865.865,0,0,1,.3,8.435l2.15-1.916L3.035,3.7A.871.871,0,0,1,3.7,3.033l2.818-.58L8.435.3a.873.873,0,0,1,.93-.262l2.729.9,2.73-.9A.868.868,0,0,1,15.091,0a.877.877,0,0,1,.238.033A.859.859,0,0,1,15.754.3L17.67,2.453l2.818.58a.878.878,0,0,1,.668.668l.58,2.818,2.15,1.916a.859.859,0,0,1,.271.425.872.872,0,0,1-.009.5l-.9,2.73.871,2.759a.872.872,0,0,1-.262.929L21.707,17.7l-.581,2.818a.856.856,0,0,1-.235.432.88.88,0,0,1-.432.236l-2.818.581-1.916,2.148A.873.873,0,0,1,15.086,24.2Zm.03-11.3a2.521,2.521,0,0,0-1.765.732A2.5,2.5,0,1,0,17.613,15.4a2.513,2.513,0,0,0-.732-1.766A2.48,2.48,0,0,0,15.115,12.907Zm.013-5.092h0L7.756,15.188l1.233,1.231L16.36,9.046,15.129,7.815ZM8.784,6.576a2.526,2.526,0,0,0-1.767.732,2.48,2.48,0,0,0-.732,1.766,2.514,2.514,0,0,0,.732,1.767,2.5,2.5,0,0,0,3.534,0A2.5,2.5,0,0,0,8.784,6.576Zm6.332,9.584h0v-.028a.756.756,0,0,1-.522-1.3.754.754,0,0,1,.524-.211h.018a.778.778,0,0,1,.515,1.32A.761.761,0,0,1,15.116,16.16ZM8.784,9.829A.755.755,0,0,1,8.25,8.541a.754.754,0,0,1,1.067,0,.754.754,0,0,1-.533,1.288Z" fill="#20262e"/>
</svg>
