<svg id="notifications_24px" xmlns="http://www.w3.org/2000/svg" width="24" height="24" viewBox="0 0 24 24">
  <rect id="Boundary" width="24" height="24" fill="none"/>
  <path id="Path_108773" data-name="Path 108773" d="M202.749,266.085v8.246a.624.624,0,0,0,.624.625h3.119a.618.618,0,0,0,.611-.56l6.991,1.324a5,5,0,0,0,3.731-.762l5.238-3.51a1.588,1.588,0,0,0-1.316-2.848l-.89.252v-9.869a.625.625,0,0,0-.624-.624H210.028a.625.625,0,0,0-.624.624v6.954h-2.317a.615.615,0,0,0-.594-.476h-3.119a.625.625,0,0,0-.624.624Zm19.339,3.716a.34.34,0,0,1,.281.609l-5.238,3.51a3.755,3.755,0,0,1-2.8.573l-7.211-1.366v-5.943h2.294l.175.2h0l1.382,1.55a.625.625,0,0,0,.466.209h3.4a.75.75,0,1,1,0,1.5h-3.238a.624.624,0,1,0,0,1.249h3.238a1.988,1.988,0,0,0,1.139-.36Zm-2.479-10.194v9.6l-2.788.788c0-.034.01-.066.01-.1a2,2,0,0,0-2-2h-3.117l-1.063-1.192v-7.093S219.683,259.558,219.608,259.607ZM204,266.71h1.87v7H204Z" transform="translate(-201.204 -255.452)" fill="#20262e" stroke="#fff" stroke-width="0.4"/>
</svg>
