<svg id="Component_178_9" data-name="Component 178 – 9" xmlns="http://www.w3.org/2000/svg" width="32" height="32" viewBox="0 0 32 32">
  <g id="_Container_l_Color" data-name="🔲🎨 Container l Color" fill="none" stroke="#e9ebed" stroke-width="1">
    <rect width="32" height="32" rx="10" stroke="none"/>
    <rect x="0.5" y="0.5" width="31" height="31" rx="9.5" fill="none"/>
  </g>
  <g id="Icon_feather-share-2" data-name="Icon feather-share-2" transform="translate(3.941 4.602)">
    <path id="Path_84442" data-name="Path 84442" d="M27.539,5.52A2.52,2.52,0,1,1,25.02,3a2.52,2.52,0,0,1,2.52,2.52Z" transform="translate(-7.922 0)" fill="none" stroke="#20262e" stroke-linecap="round" stroke-linejoin="round" stroke-width="1.5"/>
    <path id="Path_84443" data-name="Path 84443" d="M9.539,16.02A2.52,2.52,0,1,1,7.02,13.5,2.52,2.52,0,0,1,9.539,16.02Z" transform="translate(0 -4.621)" fill="none" stroke="#20262e" stroke-linecap="round" stroke-linejoin="round" stroke-width="1.5"/>
    <path id="Path_84444" data-name="Path 84444" d="M27.539,26.52A2.52,2.52,0,1,1,25.02,24,2.52,2.52,0,0,1,27.539,26.52Z" transform="translate(-7.922 -9.242)" fill="none" stroke="#20262e" stroke-linecap="round" stroke-linejoin="round" stroke-width="1.5"/>
    <path id="Path_84445" data-name="Path 84445" d="M12.885,20.265l5.736,3.343" transform="translate(-3.69 -7.598)" fill="none" stroke="#20262e" stroke-linecap="round" stroke-linejoin="round" stroke-width="1.5"/>
    <path id="Path_84446" data-name="Path 84446" d="M18.613,9.765l-5.728,3.343" transform="translate(-3.69 -2.977)" fill="none" stroke="#20262e" stroke-linecap="round" stroke-linejoin="round" stroke-width="1.5"/>
  </g>
</svg>
