<svg xmlns="http://www.w3.org/2000/svg" xmlns:xlink="http://www.w3.org/1999/xlink" width="39.444" height="38.527" viewBox="0 0 39.444 38.527">
  <defs>
    <linearGradient id="linear-gradient" x1="0.5" x2="0.5" y2="1" gradientUnits="objectBoundingBox">
      <stop offset="0" stop-color="#414c58"/>
      <stop offset="1"/>
    </linearGradient>
  </defs>
  <g id="Group_90782" data-name="Group 90782" transform="translate(-36.9 -2290.827)">
    <g id="Group_90781" data-name="Group 90781" transform="translate(6484.175 14498.929)">
      <g id="noun-free-shipping-5242331" transform="translate(-6447.175 -12208)">
        <path id="Path_108958" data-name="Path 108958" d="M128.415,84.97a.668.668,0,1,1-.2-.474A.668.668,0,0,1,128.415,84.97Zm18.34-.67a.668.668,0,1,0,.648.668.666.666,0,0,0-.648-.668ZM145.084,76h-2.83a.589.589,0,1,0,0,1.177h2.83a.589.589,0,0,0,0-1.177Zm9.406,5.045V82.86a2.591,2.591,0,0,1-2.585,2.585h-.929a4.246,4.246,0,0,1-8.441,0H131.966a4.246,4.246,0,0,1-8.441,0h-5.679a2.593,2.593,0,0,1-2.6-2.585V64.222a2.593,2.593,0,0,1,2.582-2.6h2.3a11.275,11.275,0,0,1,19.553-7.051c.018.018.05.036.069.054a.262.262,0,0,1,.054.087,11.151,11.151,0,0,1,2.867,6.91h2.092a2.564,2.564,0,0,1,2.391,1.653l3.428,8.74h1.3a2.612,2.612,0,0,1,2.586,2.585v2.269c0,.036.018.05.018.087Zm-1.214-3.5h-.385a1.451,1.451,0,0,0,0,2.9h.4ZM141.516,62.216a10,10,0,0,0-2.25-6.327l-6.507,5.905a3.291,3.291,0,0,1,2.514,3.4A3.655,3.655,0,0,1,132,68.7V69.8h0a.6.6,0,1,1-1.2,0V68.7a3.916,3.916,0,0,1-1.9-.792.593.593,0,1,1,.738-.929,2.9,2.9,0,0,0,1.757.58,2.531,2.531,0,0,0,2.672-2.373c0-1.037-.439-2.287-2.459-2.359l-7.263,6.611a10.1,10.1,0,0,0,17.162-7.227Zm-20.223,0h0a10.059,10.059,0,0,0,2.25,6.349l6.507-5.924a3.283,3.283,0,0,1-2.514-3.4,3.669,3.669,0,0,1,3.27-3.515V54.639a.6.6,0,0,1,1.2,0V55.73a3.9,3.9,0,0,1,1.9.807.576.576,0,0,1,.108.828.593.593,0,0,1-.828.1,2.891,2.891,0,0,0-1.775-.6,2.543,2.543,0,0,0-2.672,2.373c0,1.055.439,2.287,2.441,2.373l7.281-6.611a9.981,9.981,0,0,0-7.05-2.881,10.108,10.108,0,0,0-10.112,10.09Zm9.514,22.755h0a3.063,3.063,0,1,0-.9,2.161,3.06,3.06,0,0,0,.9-2.161Zm7.7-6.593H116.442V82.86a1.394,1.394,0,0,0,1.4,1.39h5.715a4.248,4.248,0,0,1,8.369,0h6.579Zm0-1.2v-6.19a11.218,11.218,0,0,1-15.387-1.127c-.036-.014-.054-.014-.069-.05a.14.14,0,0,1-.054-.072,11.224,11.224,0,0,1-2.867-6.928h-2.3a1.406,1.406,0,0,0-1.386,1.408v12.96ZM149.8,84.97h0a3.056,3.056,0,1,0-.889,2.156,3.049,3.049,0,0,0,.889-2.156Zm3.5-2.11V81.646h-.4a2.647,2.647,0,0,1,0-5.293h.385V74.6a1.4,1.4,0,0,0-1.39-1.39h-9.633a.591.591,0,0,1-.6-.6.6.6,0,0,1,.6-.6h7.051l-3.237-8.3a1.424,1.424,0,0,0-1.3-.9h-2.092a11.3,11.3,0,0,1-2.971,7.051V84.25h2.866a4.237,4.237,0,0,1,8.351,0h.983a1.381,1.381,0,0,0,1.39-1.39Z" transform="translate(-115.247 -50.93)" fill="#535664" stroke="#20262e" stroke-width="0.2"/>
        <g id="Path_108959" data-name="Path 108959" transform="translate(6.03 1.07)" fill="url(#linear-gradient)">
          <path d="M 10.1025390625 19.93437576293945 C 4.753939151763916 19.93437576293945 0.402539074420929 15.58297538757324 0.402539074420929 10.234375 C 0.402539074420929 4.885775089263916 4.753939151763916 0.534375011920929 10.1025390625 0.534375011920929 C 15.45113945007324 0.534375011920929 19.80253982543945 4.885775089263916 19.80253982543945 10.234375 C 19.80253982543945 15.58297538757324 15.45113945007324 19.93437576293945 10.1025390625 19.93437576293945 Z" stroke="none"/>
          <path d="M 10.1025390625 0.8343753814697266 C 4.91935920715332 0.8343753814697266 0.7025394439697266 5.05119514465332 0.7025394439697266 10.234375 C 0.7025394439697266 15.41755485534668 4.91935920715332 19.63437461853027 10.1025390625 19.63437461853027 C 15.28571891784668 19.63437461853027 19.50253868103027 15.41755485534668 19.50253868103027 10.234375 C 19.50253868103027 5.05119514465332 15.28571891784668 0.8343753814697266 10.1025390625 0.8343753814697266 M 10.1025390625 0.234375 C 15.62538909912109 0.234375 20.1025390625 4.711524963378906 20.1025390625 10.234375 C 20.1025390625 15.75722503662109 15.62538909912109 20.234375 10.1025390625 20.234375 C 4.579689025878906 20.234375 0.1025390625 15.75722503662109 0.1025390625 10.234375 C 0.1025390625 4.711524963378906 4.579689025878906 0.234375 10.1025390625 0.234375 Z" stroke="none" fill="#fff"/>
        </g>
        <g id="Group_90783" data-name="Group 90783" transform="translate(-37 -2290.929)">
          <path id="Path_108960" data-name="Path 108960" d="M.634-2.495q.27.017.561.017a3.723,3.723,0,0,0,.57-.043A2.557,2.557,0,0,0,2.3-2.662a1.553,1.553,0,0,0,.455-.27,1.353,1.353,0,0,0,.331-.435A1.794,1.794,0,0,0,3.247-4H.387a1.9,1.9,0,0,1,.095-.17L.646-4.44q.1-.167.23-.363H3.1a.448.448,0,0,0-.144-.3,1.581,1.581,0,0,0-.348-.273,2.506,2.506,0,0,0-.417-.2,1.074,1.074,0,0,0-.351-.078H.387a1.352,1.352,0,0,1,.1-.207Q.565-6,.651-6.135L.8-6.374a.654.654,0,0,1,.072-.1H5.67l-.032.063q-.032.063-.083.153l-.115.2-.118.2q-.055.092-.092.153l-.037.06H3.932a3.694,3.694,0,0,1,.21.417,1.5,1.5,0,0,1,.112.435H5.67L5.192-4H4.306a2.291,2.291,0,0,1-.3.915,2.225,2.225,0,0,1-.57.63,2.6,2.6,0,0,1-.751.386,4.41,4.41,0,0,1-.852.187.142.142,0,0,0,.02.037q.02.032.049.072a1.177,1.177,0,0,0,.069.1L4.525,1.856V2H3.431L.634-1.735Z" transform="translate(50 2305)" fill="#fff"/>
          <path id="Path_108961" data-name="Path 108961" d="M45.424,2307.388l14.794-11.155" fill="none" stroke="#fff" stroke-width="0.4"/>
        </g>
      </g>
    </g>
  </g>
</svg>
