<svg xmlns="http://www.w3.org/2000/svg" width="23.833" height="22.656" viewBox="0 0 23.833 22.656">
  <path id="Path_84747" data-name="Path 84747" d="M11.332,1.009a1.06,1.06,0,0,1,1.917,0l2.764,5.847a1.06,1.06,0,0,0,.827.6l6.438.8a1.06,1.06,0,0,1,.591,1.827l-4.724,4.4a1.06,1.06,0,0,0-.318.976l1.219,6.329a1.06,1.06,0,0,1-1.55,1.13l-5.7-3.117a1.06,1.06,0,0,0-1.018,0l-5.7,3.117a1.06,1.06,0,0,1-1.55-1.13l1.219-6.329a1.06,1.06,0,0,0-.318-.976l-4.724-4.4A1.06,1.06,0,0,1,1.3,8.259l6.438-.8a1.06,1.06,0,0,0,.827-.6Z" transform="translate(-0.374 -0.402)" fill="#080A08"/>
</svg>
