<svg xmlns="http://www.w3.org/2000/svg" width="22.209" height="22" viewBox="0 0 22.209 22">
  <g id="Group_92334" data-name="Group 92334" transform="translate(-37 -409)">
    <rect id="Boundary" width="22" height="22" transform="translate(37 409)" fill="none"/>
    <g id="Path_108977" data-name="Path 108977" transform="translate(37.926 410.393)" fill="#fff">
      <path d="M 10.64183616638184 18.41707801818848 C 5.929135322570801 15.13007354736328 2.780388116836548 11.79874706268311 1.519326210021973 8.759707450866699 C 0.6338561773300171 6.625047206878662 0.6952061653137207 4.703917026519775 1.696796178817749 3.204117059707642 C 2.645906209945679 1.782886981964111 4.368686199188232 0.8999969959259033 6.192836284637451 0.8999969959259033 C 7.708055973052979 0.8999969959259033 9.040546417236328 1.509606957435608 9.944855690002441 2.616517066955566 L 10.64183616638184 3.469636917114258 L 11.33881664276123 2.616517066955566 C 12.24311637878418 1.509606957435608 13.57561588287354 0.8999969959259033 15.09083652496338 0.8999969959259033 C 16.91518592834473 0.8999969959259033 18.63804626464844 1.782827019691467 19.58709526062012 3.203947067260742 C 20.58861541748047 4.703667163848877 20.6498966217041 6.624846935272217 19.76428604125977 8.759806632995605 C 18.50328254699707 11.79873180389404 15.3545446395874 15.13006401062012 10.64183616638184 18.41707801818848 Z" stroke="none"/>
      <path d="M 10.64183616638184 17.31545066833496 C 16.01413726806641 13.47263717651367 18.11884498596191 10.37696838378906 18.93297576904297 8.414966583251953 C 19.69795608520508 6.570796966552734 19.66533660888672 4.941687107086182 18.83863639831543 3.703767061233521 C 18.05443572998047 2.529476881027222 16.61836624145508 1.799996972084045 15.09083652496338 1.799996972084045 C 14.37273597717285 1.799996972084045 13.02094650268555 1.980046987533569 12.03578662872314 3.185916900634766 L 10.64183616638184 4.892167091369629 L 9.247885704040527 3.185926914215088 C 8.262725830078125 1.980046987533569 6.91093635559082 1.799996972084045 6.192836284637451 1.799996972084045 C 4.665506362915039 1.799996972084045 3.229516267776489 2.529546976089478 2.44524621963501 3.70393705368042 C 1.618486166000366 4.941946983337402 1.585796117782593 6.570996761322021 2.350606203079224 8.414767265319824 C 3.164822578430176 10.37696647644043 5.269541263580322 13.4726448059082 10.64183616638184 17.31545066833496 M 10.64183616638184 19.5100269317627 C 4.919785976409912 15.61450672149658 1.918806195259094 12.07063674926758 0.6880561709403992 9.104646682739258 C -2.609044075012207 1.156146287918091 6.80847692489624 -2.645072221755981 10.64183616638184 2.047106981277466 C 14.47518920898438 -2.645073175430298 23.89272499084473 1.156147241592407 20.59560585021973 9.104646682739258 C 19.36486625671387 12.07063674926758 16.36387634277344 15.61450672149658 10.64183616638184 19.5100269317627 Z" stroke="none" fill="#20262e"/>
    </g>
  </g>
</svg>
